<?xml version="1.0" standalone="no"?>
<!DOCTYPE svg PUBLIC "-//W3C//DTD SVG 20010904//EN"
 "http://www.w3.org/TR/2001/REC-SVG-20010904/DTD/svg10.dtd">
<svg version="1.0" xmlns="http://www.w3.org/2000/svg"
 width="980.000000pt" height="982.000000pt" viewBox="0 0 980.000000 982.000000"
 preserveAspectRatio="xMidYMid meet">

<g transform="translate(0.000000,982.000000) scale(0.100000,-0.100000)"
fill="#000000" stroke="none">
<path d="M4361 9794 c-989 -120 -1851 -489 -2606 -1115 -141 -117 -523 -501
-641 -644 -541 -656 -878 -1374 -1044 -2228 -51 -266 -61 -373 -67 -767 -6
-399 5 -651 38 -855 301 -1862 1547 -3339 3314 -3930 540 -180 1032 -253 1635
-242 384 7 655 39 1002 117 1122 255 2120 900 2819 1825 504 667 837 1481 948
2320 63 478 53 1021 -29 1490 -151 869 -541 1685 -1132 2370 -114 131 -375
392 -508 505 -477 409 -1048 730 -1655 932 -270 89 -655 178 -900 208 -265 32
-958 40 -1174 14z m959 -600 c1472 -151 2745 -1025 3415 -2345 337 -664 486
-1365 454 -2140 -26 -622 -176 -1191 -462 -1748 -813 -1587 -2511 -2512 -4267
-2326 -1694 179 -3110 1317 -3648 2931 -225 674 -276 1415 -146 2124 129 703
429 1356 888 1930 133 166 468 500 635 633 744 592 1582 910 2531 961 118 6
452 -5 600 -20z"/>
<path d="M4862 8809 c-58 -17 -66 -52 -66 -294 -1 -313 4 -320 199 -320 98 0
126 3 148 17 48 32 51 49 55 268 5 325 -4 341 -198 339 -58 0 -120 -5 -138
-10z"/>
<path d="M2924 8282 c-17 -11 -36 -34 -43 -51 -12 -28 -10 -37 18 -98 41 -87
133 -251 182 -325 56 -82 120 -98 171 -41 38 42 33 70 -34 203 -67 131 -155
275 -186 303 -30 27 -73 30 -108 9z"/>
<path d="M6783 8287 c-29 -17 -49 -44 -130 -177 -153 -251 -165 -289 -114
-341 34 -33 91 -40 128 -14 47 33 253 401 253 451 0 33 -59 94 -91 94 -13 -1
-34 -6 -46 -13z"/>
<path d="M4890 7958 c-47 -16 -107 -79 -119 -125 -28 -109 -36 -300 -35 -903
0 -756 20 -1092 79 -1385 26 -126 41 -156 95 -192 39 -27 116 -31 159 -8 42
21 79 70 86 113 4 20 13 71 21 112 17 91 54 374 54 413 0 24 -4 28 -22 25 -22
-3 -23 -11 -39 -163 -9 -88 -20 -184 -24 -213 l-7 -53 -23 25 c-26 28 -86 56
-121 56 -34 0 -74 -20 -111 -53 -39 -36 -37 -40 -58 148 -30 271 -36 435 -42
1017 l-6 586 38 11 c87 24 143 105 133 193 -3 24 -19 73 -37 109 -31 64 -31
69 -18 102 43 101 178 85 207 -25 6 -22 9 -45 7 -52 -3 -7 -33 -17 -67 -24
-35 -6 -65 -14 -68 -17 -12 -12 20 -102 54 -153 36 -54 107 -109 156 -119 l27
-5 3 -127 c3 -107 5 -126 19 -129 9 -2 18 3 21 10 2 7 1 153 -3 323 -8 342
-14 384 -69 443 -17 17 -45 40 -63 49 -39 20 -178 27 -227 11z m154 -2352 c77
-32 103 -132 50 -195 -80 -95 -235 -29 -221 95 5 50 27 80 72 100 39 17 58 17
99 0z"/>
<path d="M5069 7083 c-70 -43 -77 -123 -17 -189 17 -19 17 -22 3 -28 -19 -7
-45 -65 -45 -101 0 -66 55 -115 129 -115 64 0 88 15 195 123 l101 102 -100 99
c-55 54 -111 104 -125 112 -34 18 -109 17 -141 -3z m138 -23 c18 -10 68 -56
112 -102 l79 -82 -76 -81 c-103 -108 -116 -117 -173 -123 -43 -4 -51 -1 -79
26 -24 25 -30 39 -30 75 0 39 5 49 35 76 20 17 32 31 27 31 -5 0 -21 12 -36
26 -20 21 -26 36 -26 71 0 88 88 132 167 83z"/>
<path d="M1511 6845 c-46 -53 -44 -103 7 -143 104 -82 386 -232 435 -232 52 0
108 79 92 129 -3 11 -27 35 -53 54 -114 83 -386 227 -428 227 -13 0 -35 -15
-53 -35z"/>
<path d="M8150 6852 c-112 -48 -356 -196 -389 -236 -33 -40 24 -146 78 -146
46 0 366 178 445 247 36 32 35 83 -1 122 -40 42 -60 44 -133 13z"/>
<path d="M5215 6617 c-3 -7 -7 -34 -8 -58 -2 -39 1 -44 21 -47 22 -3 23 -1 20
54 -3 55 -21 83 -33 51z"/>
<path d="M5110 6490 c-54 -11 -100 -65 -100 -116 0 -17 11 -48 25 -68 l25 -37
-25 -37 c-28 -42 -32 -80 -10 -122 24 -47 62 -70 114 -70 61 0 97 23 206 134
l90 91 -100 99 c-55 54 -109 103 -119 109 -30 15 -78 24 -106 17z m93 -31 c16
-8 197 -185 197 -193 0 -8 -181 -187 -197 -195 -40 -20 -107 -14 -136 13 -51
47 -41 141 19 168 l24 11 -27 18 c-31 21 -52 55 -53 87 0 30 25 78 47 91 24
14 99 14 126 0z"/>
<path d="M4865 5208 c-108 -55 -176 -159 -183 -279 -4 -68 -1 -84 22 -135 56
-122 158 -194 287 -202 68 -4 84 -1 135 22 77 35 146 104 179 179 24 53 27 69
23 139 -3 44 -9 83 -14 86 -6 4 -16 22 -24 41 -22 54 -102 126 -165 150 -77
29 -204 29 -260 -1z"/>
<path d="M1225 5111 c-38 -4 -80 -13 -92 -19 -33 -18 -45 -80 -41 -208 2 -92
6 -116 22 -133 30 -33 110 -43 325 -39 270 4 274 7 273 197 0 138 -9 167 -58
187 -41 17 -316 27 -429 15z"/>
<path d="M8415 5111 c-38 -4 -80 -13 -92 -19 -33 -18 -46 -81 -41 -208 2 -92
6 -116 22 -133 30 -33 110 -43 325 -39 269 4 274 7 274 197 -1 137 -10 167
-59 187 -41 17 -316 27 -429 15z"/>
<path d="M5745 5055 c-225 -22 -297 -41 -320 -86 -22 -42 -18 -75 13 -108 22
-24 42 -31 117 -44 130 -23 255 -32 255 -18 0 13 -23 18 -125 26 -44 4 -90 9
-102 12 l-22 5 21 28 c24 33 20 90 -8 121 -9 11 -15 19 -13 19 2 0 72 7 154
16 85 8 306 18 507 21 l357 6 14 -35 c29 -68 92 -86 166 -47 33 17 43 18 63 8
29 -15 38 -28 38 -56 0 -30 -34 -63 -65 -63 -21 0 -26 6 -31 40 -7 45 -13 47
-69 21 -46 -21 -79 -54 -94 -93 -10 -26 -14 -27 -83 -30 -42 -2 -72 -7 -70
-13 2 -11 316 -10 384 1 26 4 47 17 68 40 26 30 30 42 30 95 0 71 -18 105 -70
128 -30 14 -97 16 -510 18 -322 1 -517 -3 -605 -12z m-185 -85 c41 -41 7 -120
-51 -120 -33 0 -79 38 -79 65 0 20 19 57 34 67 22 15 76 8 96 -12z"/>
<path d="M5840 4888 c-37 -40 -27 -73 46 -148 l66 -68 64 63 c57 56 64 67 64
102 0 26 -6 46 -18 56 -23 21 -75 22 -92 2 -11 -13 -15 -13 -33 0 -31 22 -73
18 -97 -7z m95 -8 l18 -20 14 20 c17 24 65 27 87 4 33 -32 20 -72 -44 -137
l-59 -62 -55 55 c-66 65 -80 106 -47 139 26 26 63 27 86 1z"/>
<path d="M6190 4888 c-37 -40 -27 -73 46 -148 l66 -69 58 57 c85 84 95 116 52
165 -19 21 -75 23 -92 2 -11 -13 -15 -13 -33 0 -31 22 -73 18 -97 -7z m94 -7
c17 -19 18 -19 37 0 38 38 99 12 99 -44 0 -22 -14 -43 -57 -88 l-58 -59 -52
48 c-46 41 -73 83 -73 113 0 18 40 49 63 49 13 0 32 -9 41 -19z"/>
<path d="M6090 4790 c0 -5 6 -10 13 -10 6 0 22 -3 35 -6 16 -5 22 -2 22 10 0
12 -9 16 -35 16 -19 0 -35 -4 -35 -10z"/>
<path d="M1803 3291 c-131 -66 -262 -148 -299 -188 -13 -15 -24 -38 -24 -54 0
-38 54 -99 88 -99 31 0 260 118 377 194 47 31 89 66 94 78 19 53 -33 128 -89
128 -16 0 -82 -27 -147 -59z"/>
<path d="M7781 3315 c-35 -41 -41 -84 -13 -111 32 -33 179 -123 306 -189 149
-77 177 -80 213 -26 37 54 31 93 -20 135 -98 80 -372 226 -425 226 -22 0 -39
-10 -61 -35z"/>
<path d="M3116 2058 c-55 -55 -246 -395 -246 -438 0 -10 14 -35 31 -55 41 -46
92 -49 131 -7 37 38 152 221 199 317 51 103 56 157 16 191 -42 36 -91 32 -131
-8z"/>
<path d="M6565 2078 c-32 -17 -55 -51 -55 -80 0 -30 44 -117 143 -285 83 -138
123 -183 165 -183 45 0 79 19 92 50 21 50 -44 195 -181 411 -60 93 -107 119
-164 87z"/>
<path d="M4862 1619 c-58 -17 -66 -52 -66 -294 -1 -313 4 -320 199 -320 98 0
126 3 148 17 48 32 51 49 55 268 5 325 -4 341 -198 339 -58 0 -120 -5 -138
-10z"/>
</g>
</svg>
